<svg width="20" height="19" viewBox="0 0 20 19" fill="none" xmlns="http://www.w3.org/2000/svg">
<path d="M16.365 5.39913L11.805 2.20871C10.5621 1.33788 8.65416 1.38538 7.45874 2.31163L3.49249 5.40704C2.70083 6.02454 2.07541 7.29121 2.07541 8.28871V13.7512C2.07541 15.77 3.71416 17.4166 5.73291 17.4166H14.2671C16.2858 17.4166 17.9246 15.7779 17.9246 13.7591V8.39163C17.9246 7.32288 17.2358 6.00871 16.365 5.39913ZM10.5937 14.25C10.5937 14.5745 10.3246 14.8437 9.99999 14.8437C9.67541 14.8437 9.40624 14.5745 9.40624 14.25V11.875C9.40624 11.5504 9.67541 11.2812 9.99999 11.2812C10.3246 11.2812 10.5937 11.5504 10.5937 11.875V14.25Z" fill="white"/>
</svg>
