<svg width="24" height="24" viewBox="0 0 24 24" fill="none" xmlns="http://www.w3.org/2000/svg">
<g filter="url(#filter0_ii_0_274)">
<path d="M3.14105 4.72498C3.14105 4.20748 3.56105 3.78748 4.07855 3.78748H21.4336C21.9511 3.78748 22.3711 4.20748 22.3711 4.72498V20.9385C22.3711 21.1374 22.292 21.3282 22.1514 21.4688C22.0107 21.6095 21.82 21.6885 21.6211 21.6885H3.89105C3.69214 21.6885 3.50137 21.6095 3.36072 21.4688C3.22007 21.3282 3.14105 21.1374 3.14105 20.9385V4.72498Z" fill="url(#paint0_linear_0_274)"/>
<path d="M3.14105 4.72498C3.14105 4.20748 3.56105 3.78748 4.07855 3.78748H21.4336C21.9511 3.78748 22.3711 4.20748 22.3711 4.72498V20.9385C22.3711 21.1374 22.292 21.3282 22.1514 21.4688C22.0107 21.6095 21.82 21.6885 21.6211 21.6885H3.89105C3.69214 21.6885 3.50137 21.6095 3.36072 21.4688C3.22007 21.3282 3.14105 21.1374 3.14105 20.9385V4.72498Z" fill="url(#paint1_linear_0_274)"/>
</g>
<path d="M3.14105 5.5635H19.8286C20.3461 5.5635 20.7661 5.9835 20.7661 6.501V20.826C20.7661 21.0953 20.9836 21.3135 21.2536 21.3135H21.7673C22.0193 21.3135 22.2541 21.0675 22.2541 20.7923V4.47225C22.2542 4.38286 22.2413 4.29393 22.2158 4.20825C22.3133 4.35675 22.3711 4.5345 22.3711 4.72575V20.9385C22.3711 21.1374 22.292 21.3282 22.1514 21.4688C22.0107 21.6095 21.82 21.6885 21.6211 21.6885H3.89105C3.69214 21.6885 3.50137 21.6095 3.36072 21.4688C3.22007 21.3282 3.14105 21.1374 3.14105 20.9385V5.5635Z" fill="white"/>
<g filter="url(#filter1_ii_0_274)">
<path d="M2.47278 5.56348C1.95528 5.56348 1.53528 5.98348 1.53528 6.50098V20.9385C1.53528 21.1374 1.6143 21.3282 1.75495 21.4688C1.8956 21.6095 2.08637 21.6885 2.28528 21.6885H21.129V21.6855C20.8365 21.6562 20.7653 21.381 20.7653 21.228V6.50173C20.7653 5.98423 20.3453 5.56423 19.8278 5.56423L2.47278 5.56348Z" fill="url(#paint2_linear_0_274)"/>
<path d="M2.47278 5.56348C1.95528 5.56348 1.53528 5.98348 1.53528 6.50098V20.9385C1.53528 21.1374 1.6143 21.3282 1.75495 21.4688C1.8956 21.6095 2.08637 21.6885 2.28528 21.6885H21.129V21.6855C20.8365 21.6562 20.7653 21.381 20.7653 21.228V6.50173C20.7653 5.98423 20.3453 5.56423 19.8278 5.56423L2.47278 5.56348Z" fill="white"/>
</g>
<path d="M18.855 7.14001H3.55652C3.24586 7.14001 2.99402 7.39185 2.99402 7.70251V8.09476C2.99402 8.40542 3.24586 8.65726 3.55652 8.65726H18.855C19.1657 8.65726 19.4175 8.40542 19.4175 8.09476V7.70251C19.4175 7.39185 19.1657 7.14001 18.855 7.14001Z" fill="#9C96A2"/>
<path d="M19.0485 9.78223H3.36302C3.15923 9.78223 2.99402 9.94743 2.99402 10.1512C2.99402 10.355 3.15923 10.5202 3.36302 10.5202H19.0485C19.2523 10.5202 19.4175 10.355 19.4175 10.1512C19.4175 9.94743 19.2523 9.78223 19.0485 9.78223Z" fill="#9C96A2"/>
<path d="M19.0493 12H14.5726C14.3688 12 14.2036 12.1652 14.2036 12.369C14.2036 12.5728 14.3688 12.738 14.5726 12.738H19.0493C19.2531 12.738 19.4183 12.5728 19.4183 12.369C19.4183 12.1652 19.2531 12 19.0493 12Z" fill="#9C96A2"/>
<path d="M2.99402 13.3125C2.99402 12.588 3.58202 12 4.30652 12H11.367C12.0923 12 12.6795 12.588 12.6795 13.3125V18.15C12.6795 18.4981 12.5412 18.8319 12.2951 19.0781C12.049 19.3242 11.7151 19.4625 11.367 19.4625H4.30652C3.95842 19.4625 3.62458 19.3242 3.37844 19.0781C3.1323 18.8319 2.99402 18.4981 2.99402 18.15V13.3125Z" fill="#9C96A2"/>
<path d="M19.0493 14.262H14.5726C14.3688 14.262 14.2036 14.4272 14.2036 14.631C14.2036 14.8348 14.3688 15 14.5726 15H19.0493C19.2531 15 19.4183 14.8348 19.4183 14.631C19.4183 14.4272 19.2531 14.262 19.0493 14.262Z" fill="#9C96A2"/>
<path d="M19.0493 16.5232H14.5726C14.3688 16.5232 14.2036 16.6884 14.2036 16.8922C14.2036 17.096 14.3688 17.2612 14.5726 17.2612H19.0493C19.2531 17.2612 19.4183 17.096 19.4183 16.8922C19.4183 16.6884 19.2531 16.5232 19.0493 16.5232Z" fill="#9C96A2"/>
<path d="M19.0493 18.7853H14.5726C14.3688 18.7853 14.2036 18.9505 14.2036 19.1543C14.2036 19.3581 14.3688 19.5233 14.5726 19.5233H19.0493C19.2531 19.5233 19.4183 19.3581 19.4183 19.1543C19.4183 18.9505 19.2531 18.7853 19.0493 18.7853Z" fill="#9C96A2"/>
<defs>
<filter id="filter0_ii_0_274" x="3.0348" y="3.78748" width="19.4425" height="18.0073" filterUnits="userSpaceOnUse" color-interpolation-filters="sRGB">
<feFlood flood-opacity="0" result="BackgroundImageFix"/>
<feBlend mode="normal" in="SourceGraphic" in2="BackgroundImageFix" result="shape"/>
<feColorMatrix in="SourceAlpha" type="matrix" values="0 0 0 0 0 0 0 0 0 0 0 0 0 0 0 0 0 0 127 0" result="hardAlpha"/>
<feOffset dx="0.10625"/>
<feGaussianBlur stdDeviation="0.10625"/>
<feComposite in2="hardAlpha" operator="arithmetic" k2="-1" k3="1"/>
<feColorMatrix type="matrix" values="0 0 0 0 0.658824 0 0 0 0 0.647059 0 0 0 0 0.67451 0 0 0 1 0"/>
<feBlend mode="normal" in2="shape" result="effect1_innerShadow_0_274"/>
<feColorMatrix in="SourceAlpha" type="matrix" values="0 0 0 0 0 0 0 0 0 0 0 0 0 0 0 0 0 0 127 0" result="hardAlpha"/>
<feOffset dx="-0.10625" dy="0.10625"/>
<feGaussianBlur stdDeviation="0.10625"/>
<feComposite in2="hardAlpha" operator="arithmetic" k2="-1" k3="1"/>
<feColorMatrix type="matrix" values="0 0 0 0 0.921569 0 0 0 0 0.913725 0 0 0 0 0.937255 0 0 0 1 0"/>
<feBlend mode="normal" in2="effect1_innerShadow_0_274" result="effect2_innerShadow_0_274"/>
</filter>
<filter id="filter1_ii_0_274" x="1.3759" y="5.56348" width="19.8594" height="16.2844" filterUnits="userSpaceOnUse" color-interpolation-filters="sRGB">
<feFlood flood-opacity="0" result="BackgroundImageFix"/>
<feBlend mode="normal" in="SourceGraphic" in2="BackgroundImageFix" result="shape"/>
<feColorMatrix in="SourceAlpha" type="matrix" values="0 0 0 0 0 0 0 0 0 0 0 0 0 0 0 0 0 0 127 0" result="hardAlpha"/>
<feOffset dx="0.10625"/>
<feGaussianBlur stdDeviation="0.132812"/>
<feComposite in2="hardAlpha" operator="arithmetic" k2="-1" k3="1"/>
<feColorMatrix type="matrix" values="0 0 0 0 0.717647 0 0 0 0 0.701961 0 0 0 0 0.733333 0 0 0 1 0"/>
<feBlend mode="normal" in2="shape" result="effect1_innerShadow_0_274"/>
<feColorMatrix in="SourceAlpha" type="matrix" values="0 0 0 0 0 0 0 0 0 0 0 0 0 0 0 0 0 0 127 0" result="hardAlpha"/>
<feOffset dx="-0.159375" dy="0.159375"/>
<feGaussianBlur stdDeviation="0.0796875"/>
<feComposite in2="hardAlpha" operator="arithmetic" k2="-1" k3="1"/>
<feColorMatrix type="matrix" values="0 0 0 0 1 0 0 0 0 1 0 0 0 0 1 0 0 0 1 0"/>
<feBlend mode="normal" in2="effect1_innerShadow_0_274" result="effect2_innerShadow_0_274"/>
</filter>
<linearGradient id="paint0_linear_0_274" x1="6.8438" y1="6.52423" x2="22.7348" y2="6.52423" gradientUnits="userSpaceOnUse">
<stop stop-color="#D4CCDD"/>
<stop offset="1" stop-color="#D0C8D8"/>
</linearGradient>
<linearGradient id="paint1_linear_0_274" x1="21.6563" y1="21.2902" x2="21.6563" y2="18.6652" gradientUnits="userSpaceOnUse">
<stop stop-color="#E2DEE7"/>
<stop offset="1" stop-color="#E2DEE7" stop-opacity="0"/>
</linearGradient>
<linearGradient id="paint2_linear_0_274" x1="19.479" y1="22.077" x2="21.1073" y2="22.077" gradientUnits="userSpaceOnUse">
<stop stop-color="#EBE4F4"/>
<stop offset="1" stop-color="#E9E1F2"/>
</linearGradient>
</defs>
</svg>
