<svg width="24" height="24" viewBox="0 0 24 24" fill="none" xmlns="http://www.w3.org/2000/svg">
<g clip-path="url(#clip0_0_124)">
<path d="M12 22.8533C12.4199 22.8437 12.8229 22.6858 13.1377 22.4076C13.4525 22.1294 13.6587 21.7489 13.72 21.3333H10.2133C10.2763 21.7602 10.4922 22.1497 10.8209 22.4293C11.1495 22.7089 11.5685 22.8596 12 22.8533Z" fill="black"/>
<path d="M21.6733 18.5533C21.0305 17.9802 20.4676 17.3232 20 16.6C19.4895 15.6017 19.1835 14.5115 19.1 13.3933V10.1C19.0973 9.69997 19.0616 9.30084 18.9933 8.90667C18.4686 8.80178 17.9643 8.61267 17.5 8.34667C17.677 8.91656 17.7669 9.50992 17.7667 10.1067V13.4C17.8484 14.764 18.2236 16.0943 18.8667 17.3C19.3269 18.0293 19.8731 18.7008 20.4933 19.3H3.41999C4.04026 18.7008 4.58639 18.0293 5.04666 17.3C5.68973 16.0943 6.06495 14.764 6.14666 13.4V10.1C6.14315 9.32846 6.29186 8.5638 6.58429 7.84981C6.87671 7.13583 7.3071 6.48653 7.8508 5.93911C8.39451 5.39169 9.04086 4.95689 9.75284 4.65961C10.4648 4.36233 11.2284 4.20841 12 4.20667C13.1292 4.20757 14.233 4.5415 15.1733 5.16667C15.0697 4.78599 15.0115 4.39437 15 4V3.58C14.3039 3.23757 13.5561 3.01233 12.7867 2.91333V2.07333C12.7867 1.83729 12.6929 1.61092 12.526 1.44401C12.3591 1.2771 12.1327 1.18333 11.8967 1.18333C11.6606 1.18333 11.4342 1.2771 11.2673 1.44401C11.1004 1.61092 11.0067 1.83729 11.0067 2.07333V2.94667C9.2838 3.1897 7.70704 4.04783 6.56747 5.36262C5.4279 6.67742 4.80248 8.36009 4.80666 10.1V13.3933C4.72316 14.5115 4.41718 15.6017 3.90666 16.6C3.44725 17.3216 2.89346 17.9785 2.25999 18.5533C2.18888 18.6158 2.13189 18.6927 2.0928 18.7789C2.05372 18.8651 2.03345 18.9587 2.03333 19.0533V19.96C2.03333 20.1368 2.10356 20.3064 2.22859 20.4314C2.35361 20.5564 2.52318 20.6267 2.69999 20.6267H21.2333C21.4101 20.6267 21.5797 20.5564 21.7047 20.4314C21.8298 20.3064 21.9 20.1368 21.9 19.96V19.0533C21.8999 18.9587 21.8796 18.8651 21.8405 18.7789C21.8014 18.6927 21.7444 18.6158 21.6733 18.5533Z" fill="black"/>
<path d="M19 8C20.6569 8 22 6.65685 22 5C22 3.34315 20.6569 2 19 2C17.3431 2 16 3.34315 16 5C16 6.65685 17.3431 8 19 8Z" fill="#FF0000"/>
</g>
<defs>
<clipPath id="clip0_0_124">
<rect width="24" height="24" fill="white"/>
</clipPath>
</defs>
</svg>
